<svg width="579" height="117" viewBox="0 0 579 117" fill="none" xmlns="http://www.w3.org/2000/svg">
<g filter="url(#filter0_i_1_4)">
<path d="M42.0498 76.9873H14.877V59.8486H42.0498C46.249 59.8486 49.667 59.165 52.3037 57.7979C54.9404 56.3818 56.8691 54.4287 58.0898 51.9385C59.3105 49.4482 59.9209 46.6406 59.9209 43.5156C59.9209 40.3418 59.3105 37.3877 58.0898 34.6533C56.8691 31.9189 54.9404 29.7217 52.3037 28.0615C49.667 26.4014 46.249 25.5713 42.0498 25.5713H22.4941V115H0.521484V8.35938H42.0498C50.3994 8.35938 57.5527 9.87305 63.5098 12.9004C69.5156 15.8789 74.1055 20.0049 77.2793 25.2783C80.4531 30.5518 82.04 36.582 82.04 43.3691C82.04 50.2539 80.4531 56.2109 77.2793 61.2402C74.1055 66.2695 69.5156 70.1514 63.5098 72.8857C57.5527 75.6201 50.3994 76.9873 42.0498 76.9873ZM91.4883 76.1816V74.6436C91.4883 68.833 92.3184 63.4863 93.9785 58.6035C95.6387 53.6719 98.0557 49.3994 101.229 45.7861C104.403 42.1729 108.31 39.3652 112.948 37.3633C117.587 35.3125 122.909 34.2871 128.915 34.2871C134.921 34.2871 140.268 35.3125 144.955 37.3633C149.643 39.3652 153.573 42.1729 156.747 45.7861C159.97 49.3994 162.411 53.6719 164.071 58.6035C165.731 63.4863 166.562 68.833 166.562 74.6436V76.1816C166.562 81.9434 165.731 87.29 164.071 92.2217C162.411 97.1045 159.97 101.377 156.747 105.039C153.573 108.652 149.667 111.46 145.028 113.462C140.39 115.464 135.067 116.465 129.062 116.465C123.056 116.465 117.709 115.464 113.021 113.462C108.383 111.46 104.452 108.652 101.229 105.039C98.0557 101.377 95.6387 97.1045 93.9785 92.2217C92.3184 87.29 91.4883 81.9434 91.4883 76.1816ZM112.582 74.6436V76.1816C112.582 79.502 112.875 82.6025 113.461 85.4834C114.047 88.3643 114.975 90.9033 116.244 93.1006C117.562 95.249 119.271 96.9336 121.371 98.1543C123.471 99.375 126.034 99.9854 129.062 99.9854C131.991 99.9854 134.506 99.375 136.605 98.1543C138.705 96.9336 140.39 95.249 141.659 93.1006C142.929 90.9033 143.856 88.3643 144.442 85.4834C145.077 82.6025 145.395 79.502 145.395 76.1816V74.6436C145.395 71.4209 145.077 68.3936 144.442 65.5615C143.856 62.6807 142.904 60.1416 141.586 57.9443C140.316 55.6982 138.632 53.9404 136.532 52.6709C134.433 51.4014 131.894 50.7666 128.915 50.7666C125.937 50.7666 123.397 51.4014 121.298 52.6709C119.247 53.9404 117.562 55.6982 116.244 57.9443C114.975 60.1416 114.047 62.6807 113.461 65.5615C112.875 68.3936 112.582 71.4209 112.582 74.6436ZM200.619 53.0371V115H179.525V35.752H199.374L200.619 53.0371ZM224.496 35.2393L224.13 54.7949C223.104 54.6484 221.859 54.5264 220.395 54.4287C218.979 54.2822 217.685 54.209 216.513 54.209C213.534 54.209 210.946 54.5996 208.749 55.3809C206.601 56.1133 204.794 57.2119 203.329 58.6768C201.913 60.1416 200.839 61.9238 200.106 64.0234C199.423 66.123 199.032 68.5156 198.935 71.2012L194.687 69.8828C194.687 64.7559 195.199 60.0439 196.225 55.7471C197.25 51.4014 198.739 47.6172 200.692 44.3945C202.694 41.1719 205.136 38.6816 208.017 36.9238C210.897 35.166 214.193 34.2871 217.904 34.2871C219.076 34.2871 220.272 34.3848 221.493 34.5801C222.714 34.7266 223.715 34.9463 224.496 35.2393ZM276.938 35.752V50.6934H230.795V35.752H276.938ZM242.221 16.1963H263.314V91.123C263.314 93.418 263.607 95.1758 264.193 96.3965C264.828 97.6172 265.756 98.4717 266.977 98.96C268.197 99.3994 269.735 99.6191 271.591 99.6191C272.909 99.6191 274.081 99.5703 275.106 99.4727C276.181 99.3262 277.084 99.1797 277.816 99.0332L277.89 114.561C276.083 115.146 274.13 115.61 272.03 115.952C269.931 116.294 267.611 116.465 265.072 116.465C260.434 116.465 256.381 115.708 252.914 114.194C249.496 112.632 246.859 110.142 245.004 106.724C243.148 103.306 242.221 98.8135 242.221 93.2471V16.1963ZM315.829 115H294.589V28.7207C294.589 22.7148 295.761 17.6611 298.104 13.5596C300.497 9.40918 303.842 6.28418 308.139 4.18457C312.484 2.03613 317.636 0.961914 323.593 0.961914C325.546 0.961914 327.426 1.1084 329.232 1.40137C331.039 1.64551 332.797 1.96289 334.506 2.35352L334.286 18.2471C333.358 18.0029 332.382 17.832 331.356 17.7344C330.331 17.6367 329.135 17.5879 327.768 17.5879C325.229 17.5879 323.056 18.0273 321.249 18.9062C319.491 19.7363 318.148 20.9814 317.221 22.6416C316.293 24.3018 315.829 26.3281 315.829 28.7207V115ZM331.649 35.752V50.6934H282.797V35.752H331.649ZM339.34 76.1816V74.6436C339.34 68.833 340.17 63.4863 341.83 58.6035C343.49 53.6719 345.907 49.3994 349.081 45.7861C352.255 42.1729 356.161 39.3652 360.8 37.3633C365.438 35.3125 370.761 34.2871 376.767 34.2871C382.772 34.2871 388.119 35.3125 392.807 37.3633C397.494 39.3652 401.425 42.1729 404.599 45.7861C407.821 49.3994 410.263 53.6719 411.923 58.6035C413.583 63.4863 414.413 68.833 414.413 74.6436V76.1816C414.413 81.9434 413.583 87.29 411.923 92.2217C410.263 97.1045 407.821 101.377 404.599 105.039C401.425 108.652 397.519 111.46 392.88 113.462C388.241 115.464 382.919 116.465 376.913 116.465C370.907 116.465 365.561 115.464 360.873 113.462C356.234 111.46 352.304 108.652 349.081 105.039C345.907 101.377 343.49 97.1045 341.83 92.2217C340.17 87.29 339.34 81.9434 339.34 76.1816ZM360.434 74.6436V76.1816C360.434 79.502 360.727 82.6025 361.312 85.4834C361.898 88.3643 362.826 90.9033 364.096 93.1006C365.414 95.249 367.123 96.9336 369.223 98.1543C371.322 99.375 373.886 99.9854 376.913 99.9854C379.843 99.9854 382.357 99.375 384.457 98.1543C386.557 96.9336 388.241 95.249 389.511 93.1006C390.78 90.9033 391.708 88.3643 392.294 85.4834C392.929 82.6025 393.246 79.502 393.246 76.1816V74.6436C393.246 71.4209 392.929 68.3936 392.294 65.5615C391.708 62.6807 390.756 60.1416 389.438 57.9443C388.168 55.6982 386.483 53.9404 384.384 52.6709C382.284 51.4014 379.745 50.7666 376.767 50.7666C373.788 50.7666 371.249 51.4014 369.149 52.6709C367.099 53.9404 365.414 55.6982 364.096 57.9443C362.826 60.1416 361.898 62.6807 361.312 65.5615C360.727 68.3936 360.434 71.4209 360.434 74.6436ZM449.643 2.5V115H428.476V2.5H449.643ZM489.34 35.752V115H468.173V35.752H489.34ZM466.854 15.0977C466.854 12.0215 467.929 9.48242 470.077 7.48047C472.226 5.47852 475.106 4.47754 478.72 4.47754C482.284 4.47754 485.141 5.47852 487.289 7.48047C489.486 9.48242 490.585 12.0215 490.585 15.0977C490.585 18.1738 489.486 20.7129 487.289 22.7148C485.141 24.7168 482.284 25.7178 478.72 25.7178C475.106 25.7178 472.226 24.7168 470.077 22.7148C467.929 20.7129 466.854 18.1738 466.854 15.0977ZM503.402 76.1816V74.6436C503.402 68.833 504.232 63.4863 505.893 58.6035C507.553 53.6719 509.97 49.3994 513.144 45.7861C516.317 42.1729 520.224 39.3652 524.862 37.3633C529.501 35.3125 534.823 34.2871 540.829 34.2871C546.835 34.2871 552.182 35.3125 556.869 37.3633C561.557 39.3652 565.487 42.1729 568.661 45.7861C571.884 49.3994 574.325 53.6719 575.985 58.6035C577.646 63.4863 578.476 68.833 578.476 74.6436V76.1816C578.476 81.9434 577.646 87.29 575.985 92.2217C574.325 97.1045 571.884 101.377 568.661 105.039C565.487 108.652 561.581 111.46 556.942 113.462C552.304 115.464 546.981 116.465 540.976 116.465C534.97 116.465 529.623 115.464 524.936 113.462C520.297 111.46 516.366 108.652 513.144 105.039C509.97 101.377 507.553 97.1045 505.893 92.2217C504.232 87.29 503.402 81.9434 503.402 76.1816ZM524.496 74.6436V76.1816C524.496 79.502 524.789 82.6025 525.375 85.4834C525.961 88.3643 526.889 90.9033 528.158 93.1006C529.477 95.249 531.186 96.9336 533.285 98.1543C535.385 99.375 537.948 99.9854 540.976 99.9854C543.905 99.9854 546.42 99.375 548.52 98.1543C550.619 96.9336 552.304 95.249 553.573 93.1006C554.843 90.9033 555.771 88.3643 556.356 85.4834C556.991 82.6025 557.309 79.502 557.309 76.1816V74.6436C557.309 71.4209 556.991 68.3936 556.356 65.5615C555.771 62.6807 554.818 60.1416 553.5 57.9443C552.23 55.6982 550.546 53.9404 548.446 52.6709C546.347 51.4014 543.808 50.7666 540.829 50.7666C537.851 50.7666 535.312 51.4014 533.212 52.6709C531.161 53.9404 529.477 55.6982 528.158 57.9443C526.889 60.1416 525.961 62.6807 525.375 65.5615C524.789 68.3936 524.496 71.4209 524.496 74.6436Z" fill="url(#paint0_linear_1_4)"/>
</g>
<defs>
<filter id="filter0_i_1_4" x="0.521484" y="0.961914" width="577.954" height="119.503" filterUnits="userSpaceOnUse" color-interpolation-filters="sRGB">
<feFlood flood-opacity="0" result="BackgroundImageFix"/>
<feBlend mode="normal" in="SourceGraphic" in2="BackgroundImageFix" result="shape"/>
<feColorMatrix in="SourceAlpha" type="matrix" values="0 0 0 0 0 0 0 0 0 0 0 0 0 0 0 0 0 0 127 0" result="hardAlpha"/>
<feOffset dy="4"/>
<feGaussianBlur stdDeviation="2"/>
<feComposite in2="hardAlpha" operator="arithmetic" k2="-1" k3="1"/>
<feColorMatrix type="matrix" values="0 0 0 0 0 0 0 0 0 0 0 0 0 0 0 0 0 0 0.25 0"/>
<feBlend mode="normal" in2="shape" result="effect1_innerShadow_1_4"/>
</filter>
<linearGradient id="paint0_linear_1_4" x1="-9" y1="60.5" x2="587" y2="60.3865" gradientUnits="userSpaceOnUse">
<stop stop-color="#CA660A"/>
<stop offset="0.5" stop-color="#C23535"/>
<stop offset="1" stop-color="#2A52E1"/>
</linearGradient>
</defs>
</svg>
