<?xml version="1.0" encoding="UTF-8"?>
<!DOCTYPE svg PUBLIC "-//W3C//DTD SVG 1.1//EN" "http://www.w3.org/Graphics/SVG/1.1/DTD/svg11.dtd">
<svg xmlns="http://www.w3.org/2000/svg" version="1.1" width="2183px" height="2500px" style="shape-rendering:geometricPrecision; text-rendering:geometricPrecision; image-rendering:optimizeQuality; fill-rule:evenodd; clip-rule:evenodd" xmlns:xlink="http://www.w3.org/1999/xlink">
<g><path style="opacity:0.999" fill="#1b73ba" d="M -0.5,3.5 C 727.167,4.74811 1454.83,6.08144 2182.5,7.5C 2182.5,11.8333 2182.5,16.1667 2182.5,20.5C 2117.96,759.673 2053.62,1499.01 1989.5,2238.5C 1692.7,2324.26 1395.87,2409.93 1099,2495.5C 793.18,2409.75 487.347,2324.09 181.5,2238.5C 121.373,1497.64 60.706,756.975 -0.5,16.5C -0.5,12.1667 -0.5,7.83333 -0.5,3.5 Z"/></g>
<g><path style="opacity:1" fill="#1c88c7" d="M 1099.5,2023.5 C 1283.69,1964.7 1468.02,1906.37 1652.5,1848.5C 1675.23,1568.11 1698.56,1287.77 1722.5,1007.5C 1528.5,1007.67 1334.5,1007.5 1140.5,1007C 1351.75,919.205 1563.08,831.705 1774.5,744.5C 1774.5,656.5 1774.5,568.5 1774.5,480.5C 1313.83,480.5 853.167,480.5 392.5,480.5C 627.999,479.5 863.666,479.167 1099.5,479.5C 1099.5,391.833 1099.5,304.167 1099.5,216.5C 1398.83,217.774 1698.17,218.774 1997.5,219.5C 1944.26,834.808 1891.26,1450.14 1838.5,2065.5C 1592.13,2136.35 1345.96,2207.68 1100,2279.5C 1099.5,2194.17 1099.33,2108.83 1099.5,2023.5 Z"/></g>
<g><path style="opacity:1" fill="#fefefe" d="M 392.5,480.5 C 853.167,480.5 1313.83,480.5 1774.5,480.5C 1774.5,568.5 1774.5,656.5 1774.5,744.5C 1563.08,831.705 1351.75,919.205 1140.5,1007C 1334.5,1007.5 1528.5,1007.67 1722.5,1007.5C 1698.56,1287.77 1675.23,1568.11 1652.5,1848.5C 1468.02,1906.37 1283.69,1964.7 1099.5,2023.5C 908.271,1969.86 716.938,1916.53 525.5,1863.5C 513.499,1720.16 501.499,1576.83 489.5,1433.5C 578.833,1433.5 668.167,1433.5 757.5,1433.5C 764.976,1502.4 772.643,1571.23 780.5,1640C 876.5,1664.67 972.5,1689.33 1068.5,1714C 1078.86,1712.96 1089.2,1711.46 1099.5,1709.5C 1197.66,1689.6 1295.99,1670.6 1394.5,1652.5C 1405.95,1530.84 1417.29,1409.18 1428.5,1287.5C 1111.5,1287.5 794.5,1287.5 477.5,1287.5C 465.124,1201.37 452.79,1115.2 440.5,1029C 440.833,1028.17 441.167,1027.33 441.5,1026.5C 655.072,934.546 868.739,842.879 1082.5,751.5C 1083.29,751.217 1083.96,750.717 1084.5,750C 866.167,749.5 647.834,749.333 429.5,749.5C 417.262,659.831 404.928,570.164 392.5,480.5 Z"/></g>
<g><path style="opacity:1" fill="#66a1d1" d="M 429.5,749.5 C 647.834,749.333 866.167,749.5 1084.5,750C 1083.96,750.717 1083.29,751.217 1082.5,751.5C 864.833,750.833 647.167,750.167 429.5,749.5 Z"/></g>
<g><path style="opacity:1" fill="#1c88c7" d="M 477.5,1287.5 C 794.5,1287.5 1111.5,1287.5 1428.5,1287.5C 1417.29,1409.18 1405.95,1530.84 1394.5,1652.5C 1295.99,1670.6 1197.66,1689.6 1099.5,1709.5C 1099.5,1569.17 1099.5,1428.83 1099.5,1288.5C 891.999,1288.83 684.666,1288.5 477.5,1287.5 Z"/></g>
</svg>
