<?xml version="1.0" encoding="UTF-8"?>
<!DOCTYPE svg PUBLIC "-//W3C//DTD SVG 1.1//EN" "http://www.w3.org/Graphics/SVG/1.1/DTD/svg11.dtd">
<svg xmlns="http://www.w3.org/2000/svg" version="1.1" width="1024px" height="1024px" style="shape-rendering:geometricPrecision; text-rendering:geometricPrecision; image-rendering:optimizeQuality; fill-rule:evenodd; clip-rule:evenodd" xmlns:xlink="http://www.w3.org/1999/xlink">
<g><path style="opacity:0.997" fill="#828282" d="M 482.5,23.5 C 653.739,17.2237 792.573,80.5571 899,213.5C 978.163,317.772 1010.83,435.439 997,566.5C 986.355,665.078 949.021,751.745 885,826.5C 771.852,956.358 629.019,1013.19 456.5,997C 358.864,986.706 272.864,950.04 198.5,887C 67.6376,773.508 10.1376,630.008 26,456.5C 36.954,354.526 76.2873,265.526 144,189.5C 234.016,88.2906 346.849,32.9573 482.5,23.5 Z"/></g>
<g><path style="opacity:1" fill="#9b9b9b" d="M 778.5,322.5 C 803.337,321.171 828.337,321.171 853.5,322.5C 853.376,323.107 853.043,323.44 852.5,323.5C 828.006,322.502 803.339,322.169 778.5,322.5 Z"/></g>
<g><path style="opacity:1" fill="#fefefe" d="M 309.5,321.5 C 385.129,317.697 438.629,350.031 470,418.5C 484.049,453.128 490.216,489.128 488.5,526.5C 398.167,526.5 307.833,526.5 217.5,526.5C 215.886,553.605 221.719,578.939 235,602.5C 253.555,628.34 278.721,643.507 310.5,648C 333.559,650.812 355.893,648.145 377.5,640C 397.025,631.141 411.192,616.975 420,597.5C 421.485,592.892 422.652,588.226 423.5,583.5C 443.167,583.5 462.833,583.5 482.5,583.5C 474.131,631.041 448.131,665.208 404.5,686C 357.434,704.549 309.767,706.216 261.5,691C 220.296,675.131 190.796,646.964 173,606.5C 152.191,554.657 148.525,501.657 162,447.5C 185.003,374.65 234.17,332.65 309.5,321.5 Z"/></g>
<g><path style="opacity:1" fill="#fefefe" d="M 778.5,322.5 C 803.339,322.169 828.006,322.502 852.5,323.5C 809.137,380.867 766.137,438.534 723.5,496.5C 771.786,564.891 820.452,633.057 869.5,701C 842.833,701.667 816.167,701.667 789.5,701C 754.209,648.92 719.043,596.753 684,544.5C 648.462,596.408 613.295,648.574 578.5,701C 553.167,701.667 527.833,701.667 502.5,701C 550.236,634.934 597.569,568.601 644.5,502C 600.848,442.344 557.181,382.677 513.5,323C 540.167,322.333 566.833,322.333 593.5,323C 623.543,366.92 653.71,410.754 684,454.5C 715.363,410.319 746.863,366.319 778.5,322.5 Z"/></g>
<g><path style="opacity:1" fill="#828282" d="M 425.5,476.5 C 356.167,476.5 286.833,476.5 217.5,476.5C 217.5,475.167 217.5,473.833 217.5,472.5C 221.81,428.001 244.477,397.168 285.5,380C 322.598,368.916 356.598,374.916 387.5,398C 410.726,418.954 423.392,445.12 425.5,476.5 Z"/></g>
<g><path style="opacity:1" fill="#c3c3c3" d="M 217.5,472.5 C 217.5,473.833 217.5,475.167 217.5,476.5C 286.833,476.5 356.167,476.5 425.5,476.5C 356.002,477.499 286.335,477.833 216.5,477.5C 216.216,475.585 216.549,473.919 217.5,472.5 Z"/></g>
</svg>
