<?xml version="1.0" encoding="UTF-8"?>
<!DOCTYPE svg PUBLIC "-//W3C//DTD SVG 1.1//EN" "http://www.w3.org/Graphics/SVG/1.1/DTD/svg11.dtd">
<svg xmlns="http://www.w3.org/2000/svg" version="1.1" width="2000px" height="2000px" style="shape-rendering:geometricPrecision; text-rendering:geometricPrecision; image-rendering:optimizeQuality; fill-rule:evenodd; clip-rule:evenodd" xmlns:xlink="http://www.w3.org/1999/xlink">
<g><path style="opacity:0.992" fill="#00536a" d="M 114.5,21.5 C 150.305,22.4944 184.972,29.3277 218.5,42C 262.731,58.7821 304.731,79.7821 344.5,105C 358.72,115.618 372.387,126.951 385.5,139C 392.298,144.456 399.631,149.123 407.5,153C 443.175,155.292 478.842,157.626 514.5,160C 545.331,167.041 575.997,174.708 606.5,183C 646.915,195.043 684.581,212.71 719.5,236C 794.069,281.238 864.736,331.905 931.5,388C 1035.51,479.07 1123.34,583.237 1195,700.5C 1207.6,720.027 1218.93,740.36 1229,761.5C 1263.86,848.219 1301.19,933.885 1341,1018.5C 1369.13,1073.77 1396.47,1129.43 1423,1185.5C 1429.95,1198.45 1438.45,1210.28 1448.5,1221C 1461.49,1228.22 1475.15,1233.89 1489.5,1238C 1531.5,1257.33 1573.5,1276.67 1615.5,1296C 1705.63,1350.79 1790.13,1413.29 1869,1483.5C 1883.63,1500.11 1897.3,1517.44 1910,1535.5C 1915.67,1541.83 1921.33,1548.17 1927,1554.5C 1927.5,1559.15 1927.67,1563.82 1927.5,1568.5C 1900.49,1577.11 1873.16,1584.61 1845.5,1591C 1813.19,1595.48 1780.85,1599.81 1748.5,1604C 1722.71,1610.2 1697.05,1616.86 1671.5,1624C 1659.53,1626.55 1647.53,1628.88 1635.5,1631C 1639.45,1639.74 1644.28,1647.91 1650,1655.5C 1669.54,1675.72 1691.37,1692.88 1715.5,1707C 1742.33,1721.91 1768.66,1737.58 1794.5,1754C 1847.21,1791.71 1893.05,1836.55 1932,1888.5C 1946.64,1902.14 1960.97,1916.14 1975,1930.5C 1980.1,1939.8 1984.43,1949.46 1988,1959.5C 1989.83,1963.83 1992.16,1967.83 1995,1971.5C 1995.67,1973.5 1995.67,1975.5 1995,1977.5C 1988.96,1975.23 1983.46,1972.06 1978.5,1968C 1968.77,1957.6 1958.44,1947.93 1947.5,1939C 1919.5,1919 1891.5,1899 1863.5,1879C 1826.01,1857.59 1787.34,1838.26 1747.5,1821C 1722.02,1808.77 1697.69,1794.77 1674.5,1779C 1651.17,1761.67 1627.83,1744.33 1604.5,1727C 1578.56,1703.41 1556.73,1676.57 1539,1646.5C 1534.72,1636.95 1530.72,1627.28 1527,1617.5C 1525.39,1614.23 1523.39,1611.23 1521,1608.5C 1518.87,1599.56 1521.7,1592.4 1529.5,1587C 1534.12,1583.9 1539.12,1581.57 1544.5,1580C 1566.9,1573.87 1588.9,1566.53 1610.5,1558C 1653.26,1545.26 1696.93,1537.6 1741.5,1535C 1773.49,1533.28 1805.49,1532.61 1837.5,1533C 1834.42,1525.51 1830.09,1518.85 1824.5,1513C 1800.4,1493.11 1774.73,1475.44 1747.5,1460C 1700.89,1425.35 1652.89,1392.69 1603.5,1362C 1594.62,1357.73 1585.62,1353.73 1576.5,1350C 1551.27,1341.26 1526.27,1331.92 1501.5,1322C 1473.17,1314 1445.17,1305 1417.5,1295C 1402.44,1289.73 1389.27,1281.56 1378,1270.5C 1353.72,1236.97 1332.72,1201.31 1315,1163.5C 1278.37,1080.57 1240.37,998.234 1201,916.5C 1185.16,880.982 1170.49,844.982 1157,808.5C 1051.95,600.778 899.783,436.612 700.5,316C 645.539,283.448 587.539,257.448 526.5,238C 515.964,235.516 505.298,233.85 494.5,233C 472.156,231.833 449.823,230.499 427.5,229C 418.43,228.133 409.43,226.8 400.5,225C 389.095,224.934 377.762,224.267 366.5,223C 358.333,219.087 350.667,214.42 343.5,209C 332.5,199.333 321.5,189.667 310.5,180C 282.247,161.368 252.581,145.035 221.5,131C 198.395,120.781 175.062,111.114 151.5,102C 138.034,97.3417 124.201,94.5083 110,93.5C 106.112,93.5939 102.279,94.0939 98.5,95C 91.9516,98.1862 85.2849,101.186 78.5,104C 67.0166,117.75 63.8499,133.25 69,150.5C 76.1125,171.726 86.1125,191.393 99,209.5C 138.764,257.93 175.431,308.596 209,361.5C 219.097,381.026 228.097,401.026 236,421.5C 253.062,472.02 269.729,522.687 286,573.5C 302.031,620.898 324.364,664.898 353,705.5C 365.975,718.142 378.641,731.142 391,744.5C 405.372,762.697 409.372,783.03 403,805.5C 400.289,817.677 396.956,829.677 393,841.5C 383.66,867.51 374.327,893.51 365,919.5C 346.441,989.438 340.774,1060.44 348,1132.5C 353.419,1204.55 374.419,1271.55 411,1333.5C 421.034,1347.59 434.201,1357.43 450.5,1363C 453.575,1363.14 456.575,1362.64 459.5,1361.5C 463.178,1322.75 467.678,1284.08 473,1245.5C 477.714,1207.03 489.047,1170.7 507,1136.5C 521.188,1115.97 536.521,1096.31 553,1077.5C 556,1073.17 559,1068.83 562,1064.5C 567.511,1067.68 571.178,1072.35 573,1078.5C 592.795,1136.1 616.461,1192.1 644,1246.5C 692.836,1342.91 750.17,1433.58 816,1518.5C 832.098,1537.27 848.932,1555.43 866.5,1573C 877.397,1579.9 887.063,1588.23 895.5,1598C 896.448,1598.48 897.448,1598.65 898.5,1598.5C 898.785,1600.29 898.452,1601.95 897.5,1603.5C 883.185,1597.35 870.185,1589.18 858.5,1579C 841.165,1561.33 823.498,1544 805.5,1527C 748.24,1484.41 696.74,1435.58 651,1380.5C 642.755,1369.68 634.755,1358.68 627,1347.5C 607.016,1307.53 587.016,1267.53 567,1227.5C 565.107,1230.62 563.774,1233.95 563,1237.5C 561.234,1252 558.567,1266.33 555,1280.5C 551.17,1305.81 547.503,1331.14 544,1356.5C 541.274,1376.02 534.607,1394.02 524,1410.5C 497.32,1438.7 465.82,1445.87 429.5,1432C 418.316,1426.58 407.983,1419.91 398.5,1412C 363.881,1378.01 338.048,1338.18 321,1292.5C 292.309,1213.33 280.309,1131.67 285,1047.5C 287.465,993.176 297.132,940.176 314,888.5C 318.509,868.131 323.176,847.798 328,827.5C 331.102,815.846 335.936,805.013 342.5,795C 340.965,788.722 338.465,782.889 335,777.5C 327.667,768.833 319.667,760.833 311,753.5C 286.368,718.592 265.035,681.592 247,642.5C 223.17,584.681 201.503,526.014 182,466.5C 177.671,445.515 171.338,425.181 163,405.5C 154.75,390.661 145.75,376.328 136,362.5C 113.05,331.882 89.7162,301.548 66,271.5C 46.1362,246.94 29.4695,220.274 16,191.5C -4.18669,145.529 0.146647,102.195 29,61.5C 51.3751,35.2023 79.8751,21.869 114.5,21.5 Z"/></g>
<g><path style="opacity:0.985" fill="#00536a" d="M 445.5,356.5 C 449.514,356.334 453.514,356.501 457.5,357C 466.55,364.385 475.884,371.385 485.5,378C 489.025,381.557 492.191,385.39 495,389.5C 499.524,399.384 504.691,408.884 510.5,418C 510.103,431.883 507.603,445.383 503,458.5C 497.562,470.441 489.395,480.107 478.5,487.5C 467.411,465.654 456.577,443.654 446,421.5C 434.667,408.167 423.333,394.833 412,381.5C 409.268,377.759 406.934,373.759 405,369.5C 403.89,367.963 402.39,367.297 400.5,367.5C 400.489,363.648 402.489,361.815 406.5,362C 419.546,359.413 432.546,357.58 445.5,356.5 Z"/></g>
</svg>
