<?xml version="1.0" encoding="UTF-8"?>
<!DOCTYPE svg PUBLIC "-//W3C//DTD SVG 1.1//EN" "http://www.w3.org/Graphics/SVG/1.1/DTD/svg11.dtd">
<svg xmlns="http://www.w3.org/2000/svg" version="1.1" width="463px" height="463px" style="shape-rendering:geometricPrecision; text-rendering:geometricPrecision; image-rendering:optimizeQuality; fill-rule:evenodd; clip-rule:evenodd" xmlns:xlink="http://www.w3.org/1999/xlink">
<g><path style="opacity:0.999" fill="#1b5264" d="M 209.5,-0.5 C 223.5,-0.5 237.5,-0.5 251.5,-0.5C 328.336,8.54853 387.503,45.5485 429,110.5C 448.145,143.43 459.312,178.764 462.5,216.5C 462.5,225.833 462.5,235.167 462.5,244.5C 456.019,316.308 424.352,374.142 367.5,418C 330.917,444.028 290.25,458.861 245.5,462.5C 235.833,462.5 226.167,462.5 216.5,462.5C 131.751,454.062 68.2505,413.062 26,339.5C 11.7742,311.667 2.94091,282.334 -0.5,251.5C -0.5,237.5 -0.5,223.5 -0.5,209.5C 11.0082,121.277 56.6748,57.7773 136.5,19C 159.994,8.87841 184.328,2.37841 209.5,-0.5 Z"/></g>
<g><path style="opacity:1" fill="#fbfbfb" d="M 211.5,17.5 C 274.504,13.7768 329.504,32.6102 376.5,74C 433.407,130.066 454.574,197.566 440,276.5C 418.994,357.173 368.827,410.34 289.5,436C 216.823,454.075 151.156,440.075 92.5,394C 36.1886,343.497 11.3553,280.33 18,204.5C 29.6543,130.214 68.4877,75.3809 134.5,40C 159.003,28.1057 184.669,20.6057 211.5,17.5 Z"/></g>
<g><path style="opacity:1" fill="#144e61" d="M 212.5,30.5 C 216.846,30.3343 221.179,30.501 225.5,31C 176.705,53.3947 153.539,91.5613 156,145.5C 161.752,184.531 181.918,213.364 216.5,232C 253.368,243.535 277.535,267.702 289,304.5C 296.022,338.08 288.355,367.747 266,393.5C 235.241,423.454 199.408,431.621 158.5,418C 85.87,387.68 43.37,333.513 31,255.5C 24.4336,186.517 46.2669,128.35 96.5,81C 129.885,52.0383 168.551,35.205 212.5,30.5 Z"/></g>
<g><path style="opacity:1" fill="#e87913" d="M 242.5,430.5 C 240.585,430.784 238.919,430.451 237.5,429.5C 276.388,412.443 298.888,382.776 305,340.5C 308.311,292.952 289.811,256.786 249.5,232C 242.081,228.083 234.414,224.75 226.5,222C 184.771,199.716 166.271,164.883 171,117.5C 180.098,76.4024 204.931,50.2357 245.5,39C 269.908,34.5462 293.241,37.8795 315.5,49C 383.372,82.5214 421.872,137.021 431,212.5C 435.164,291.666 404.997,353.832 340.5,399C 310.668,418.222 278.001,428.722 242.5,430.5 Z"/></g>
<g><path style="opacity:1" fill="#fefaf6" d="M 298.5,229.5 C 285.399,220.66 275.566,208.993 269,194.5C 268,200.167 267,205.833 266,211.5C 263.265,217.122 259.099,218.622 253.5,216C 242.817,205.459 238.15,192.626 239.5,177.5C 239.667,173.5 239.833,169.5 240,165.5C 242.115,158.924 243.448,152.258 244,145.5C 239.666,140.84 236.332,135.506 234,129.5C 230.997,121.156 227.997,112.822 225,104.5C 221,99.1667 217,93.8333 213,88.5C 206.552,80.7162 207.052,73.5495 214.5,67C 221.738,64.7188 228.738,65.3854 235.5,69C 241.365,71.5419 246.699,74.8752 251.5,79C 260.471,79.0759 269.137,80.7426 277.5,84C 302.285,96.8011 322.119,114.968 337,138.5C 344.864,157.227 353.531,175.56 363,193.5C 381.723,200.565 398.056,211.232 412,225.5C 413.559,227.217 414.392,229.217 414.5,231.5C 407.957,233.301 401.29,234.468 394.5,235C 390.905,235.561 387.572,236.728 384.5,238.5C 385.04,239.748 385.707,240.915 386.5,242C 401.033,249.869 413.033,260.536 422.5,274C 421.833,274.667 421.167,274.667 420.5,274C 412.14,265.988 402.473,259.988 391.5,256C 382.432,251.265 375.765,244.265 371.5,235C 371.645,234.228 371.978,233.561 372.5,233C 382.992,228.322 393.992,226.322 405.5,227C 392.716,214.773 377.716,206.439 360.5,202C 358.376,200.878 356.543,199.378 355,197.5C 345.531,179.56 336.864,161.227 329,142.5C 317.5,123 302,107.5 282.5,96C 271.762,89.3989 260.096,86.3989 247.5,87C 239.112,78.8024 229.112,74.4691 217.5,74C 215.675,75.4659 215.175,77.2992 216,79.5C 220.609,87.1074 225.609,94.4408 231,101.5C 234.727,110.681 238.061,120.015 241,129.5C 243.557,134.723 246.891,139.39 251,143.5C 251.667,146.167 251.667,148.833 251,151.5C 243.446,169.645 243.78,187.645 252,205.5C 253.509,207.919 255.675,208.919 258.5,208.5C 256.951,196.36 260.451,186.027 269,177.5C 276.538,196.254 286.371,213.587 298.5,229.5 Z"/></g>
<g><path style="opacity:1" fill="#fef6ef" d="M 251.5,102.5 C 257.551,100.312 261.551,102.478 263.5,109C 262.888,111.058 261.888,112.891 260.5,114.5C 257.978,110.112 254.978,106.112 251.5,102.5 Z"/></g>
<g><path style="opacity:1" fill="#f6f8f9" d="M 172.5,234.5 C 172.5,233.833 172.833,233.5 173.5,233.5C 184.515,241.503 192.682,251.836 198,264.5C 198.908,259.147 199.908,253.813 201,248.5C 203.354,242.905 207.521,241.072 213.5,243C 224.121,252.497 229.121,264.497 228.5,279C 228.174,289.978 226.174,300.645 222.5,311C 227.114,316.969 230.948,323.469 234,330.5C 237.008,338.86 240.008,347.194 243,355.5C 248.494,362.487 253.494,369.82 258,377.5C 259.802,387.92 255.468,393.253 245,393.5C 233.861,391.847 224.027,387.347 215.5,380C 206.555,379.796 197.888,378.13 189.5,375C 165.246,362.415 145.746,344.582 131,321.5C 123.152,302.804 114.486,284.47 105,266.5C 84.9068,258.394 67.5734,246.394 53,230.5C 52.5172,229.552 52.3505,228.552 52.5,227.5C 62.9386,225.804 73.2719,223.637 83.5,221C 82.5467,219.045 81.2134,217.378 79.5,216C 66.5634,209.403 55.7301,200.236 47,188.5C 46.0181,187.241 45.6848,185.908 46,184.5C 49.8333,187.667 53.6667,190.833 57.5,194C 66.9516,198.225 75.9516,203.225 84.5,209C 88.0364,212.201 91.2031,215.701 94,219.5C 94.9913,221.447 95.3247,223.447 95,225.5C 84.6877,230.001 73.8544,232.334 62.5,232.5C 70.0559,238.881 78.0559,244.715 86.5,250C 94.6835,253.171 102.85,256.338 111,259.5C 121.09,278.418 130.423,297.752 139,317.5C 154.103,342.609 175.27,360.442 202.5,371C 208.167,371.333 213.833,371.667 219.5,372C 227.326,378.915 236.326,383.748 246.5,386.5C 251.15,385.734 252.65,383.068 251,378.5C 246.333,371.833 241.667,365.167 237,358.5C 233.137,348.577 229.47,338.577 226,328.5C 223.443,323.277 220.109,318.61 216,314.5C 215.333,312.167 215.333,309.833 216,307.5C 223.308,289.807 223.308,272.141 216,254.5C 214.429,252.077 212.263,250.744 209.5,250.5C 209.076,258.375 207.576,266.042 205,273.5C 202.993,276.336 200.826,279.003 198.5,281.5C 191.63,264.752 182.963,249.086 172.5,234.5 Z"/></g>
<g><path style="opacity:1" fill="#a6bcc3" d="M 173.5,233.5 C 172.833,233.5 172.5,233.833 172.5,234.5C 170.4,231.896 168.067,229.396 165.5,227C 168.805,228.114 171.472,230.281 173.5,233.5 Z"/></g>
<g><path style="opacity:1" fill="#f7c69b" d="M 298.5,229.5 C 300.886,230.373 302.886,231.873 304.5,234C 301.879,233.573 299.879,232.073 298.5,229.5 Z"/></g>
<g><path style="opacity:1" fill="#f1f5f6" d="M 206.5,344.5 C 209.459,348.364 212.459,352.364 215.5,356.5C 209.028,358.707 205.361,356.373 204.5,349.5C 204.437,347.486 205.103,345.819 206.5,344.5 Z"/></g>
<g><path style="opacity:1" fill="#f1b277" d="M 237.5,429.5 C 238.919,430.451 240.585,430.784 242.5,430.5C 240.034,431.634 237.367,431.801 234.5,431C 235.527,430.487 236.527,429.987 237.5,429.5 Z"/></g>
</svg>
