<?xml version="1.0" encoding="UTF-8"?>
<!DOCTYPE svg PUBLIC "-//W3C//DTD SVG 1.1//EN" "http://www.w3.org/Graphics/SVG/1.1/DTD/svg11.dtd">
<svg xmlns="http://www.w3.org/2000/svg" version="1.1" width="1024px" height="1024px" style="shape-rendering:geometricPrecision; text-rendering:geometricPrecision; image-rendering:optimizeQuality; fill-rule:evenodd; clip-rule:evenodd" xmlns:xlink="http://www.w3.org/1999/xlink">
<g><path style="opacity:0.99" fill="#8cc84b" d="M 502.5,6.5 C 519.727,5.17426 536.061,8.34092 551.5,16C 677.671,87.5866 804.005,158.92 930.5,230C 951.529,242.714 964.362,261.214 969,285.5C 969.667,435.833 969.667,586.167 969,736.5C 964.405,760.414 951.905,778.914 931.5,792C 801.792,865.521 671.792,938.521 541.5,1011C 515.783,1019.87 491.116,1017.54 467.5,1004C 425.759,979.267 383.759,954.934 341.5,931C 338.72,929.188 336.22,927.021 334,924.5C 333.175,922.299 333.675,920.466 335.5,919C 345.598,914.412 355.931,910.412 366.5,907C 378.643,900.593 390.976,894.76 403.5,889.5C 407.374,890.435 411.04,891.935 414.5,894C 444.669,911.919 475.003,929.586 505.5,947C 508.702,948.483 512.036,948.817 515.5,948C 642.167,876.667 768.833,805.333 895.5,734C 896.667,732.833 897.833,731.667 899,730.5C 900.663,585.247 900.997,439.914 900,294.5C 899.208,292.413 898.041,290.579 896.5,289C 771.833,218.667 647.167,148.333 522.5,78C 516.817,73.4174 510.817,72.7507 504.5,76C 379.167,146.667 253.833,217.333 128.5,288C 125.894,289.938 124.061,292.438 123,295.5C 122.333,439.5 122.333,583.5 123,727.5C 125.526,731.69 129.026,734.857 133.5,737C 164.167,754.333 194.833,771.667 225.5,789C 244.055,800.444 264.055,804.444 285.5,801C 305.2,795.443 317.033,782.61 321,762.5C 321.333,618.833 321.667,475.167 322,331.5C 323.077,328.087 325.244,325.587 328.5,324C 347.5,323.333 366.5,323.333 385.5,324C 388.333,325.5 390.5,327.667 392,330.5C 392.667,477.833 392.667,625.167 392,772.5C 383.762,838.563 346.262,871.563 279.5,871.5C 255.469,871.576 232.469,866.742 210.5,857C 167.855,834.681 125.855,811.348 84.5,787C 66.9505,773.077 56.7839,754.911 54,732.5C 53.3333,585.167 53.3333,437.833 54,290.5C 58.6282,259.533 75.1282,237.367 103.5,224C 224.662,155.92 345.662,87.5865 466.5,19C 477.781,12.3582 489.781,8.19156 502.5,6.5 Z"/></g>
<g><path style="opacity:0.99" fill="#8cc84b" d="M 618.5,311.5 C 653.461,311.184 687.461,316.684 720.5,328C 764.22,344.396 790.72,375.563 800,421.5C 801.624,429.776 802.291,438.109 802,446.5C 800.878,448.624 799.378,450.457 797.5,452C 777.59,453.642 757.59,453.975 737.5,453C 734.272,451.437 732.105,448.937 731,445.5C 727.526,425.367 718.026,408.867 702.5,396C 684.279,385.526 664.612,379.859 643.5,379C 625.5,378.333 607.5,378.333 589.5,379C 567.98,379.291 548.313,385.291 530.5,397C 517.825,409.866 513.992,425.033 519,442.5C 523.018,450.181 529.185,455.348 537.5,458C 553.485,463.397 569.818,467.397 586.5,470C 620.846,474.918 655.179,479.918 689.5,485C 718.101,489.315 745.435,497.648 771.5,510C 804.05,528.753 819.384,557.086 817.5,595C 817.381,638.067 799.048,670.734 762.5,693C 731.641,709.634 698.641,718.967 663.5,721C 618.617,724.733 574.284,721.399 530.5,711C 500.036,703.026 474.202,687.526 453,664.5C 434.244,639.23 426.244,610.896 429,579.5C 430.167,578.333 431.333,577.167 432.5,576C 452.41,574.358 472.41,574.025 492.5,575C 495.333,576.5 497.5,578.667 499,581.5C 500.871,598.024 506.538,613.024 516,626.5C 529.359,639.264 545.193,647.431 563.5,651C 602.058,657.307 640.724,657.974 679.5,653C 695.441,651.023 710.108,645.69 723.5,637C 738.793,623.452 744.293,606.619 740,586.5C 736.974,578.806 731.808,572.972 724.5,569C 706.958,561.043 688.624,555.709 669.5,553C 631.146,548.146 592.813,543.146 554.5,538C 531.398,534.392 509.398,527.392 488.5,517C 452.347,495.671 436.513,463.837 441,421.5C 444.844,384.632 462.678,356.799 494.5,338C 519.471,324.423 546.137,316.423 574.5,314C 589.319,313.083 603.986,312.249 618.5,311.5 Z"/></g>
</svg>
