<?xml version="1.0" encoding="UTF-8"?>
<!DOCTYPE svg PUBLIC "-//W3C//DTD SVG 1.1//EN" "http://www.w3.org/Graphics/SVG/1.1/DTD/svg11.dtd">
<svg xmlns="http://www.w3.org/2000/svg" version="1.1" width="462px" height="244px" style="shape-rendering:geometricPrecision; text-rendering:geometricPrecision; image-rendering:optimizeQuality; fill-rule:evenodd; clip-rule:evenodd" xmlns:xlink="http://www.w3.org/1999/xlink">
<g><path style="opacity:0.999" fill="#617bbe" d="M 215.5,-0.5 C 225.5,-0.5 235.5,-0.5 245.5,-0.5C 288.796,0.99783 330.796,9.49783 371.5,25C 399.442,35.367 423.275,51.5336 443,73.5C 452.761,86.0125 458.928,100.013 461.5,115.5C 461.5,119.5 461.5,123.5 461.5,127.5C 456.837,151.687 444.837,171.52 425.5,187C 398.432,207.199 368.432,221.532 335.5,230C 305.819,237.623 275.819,242.123 245.5,243.5C 235.5,243.5 225.5,243.5 215.5,243.5C 172.204,242.002 130.204,233.502 89.5,218C 61.5579,207.633 37.7245,191.466 18,169.5C 8.23909,156.987 2.07243,142.987 -0.5,127.5C -0.5,123.5 -0.5,119.5 -0.5,115.5C 4.16331,91.3134 16.1633,71.4801 35.5,56C 62.5683,35.8015 92.5683,21.4681 125.5,13C 155.181,5.37686 185.181,0.876863 215.5,-0.5 Z"/></g>
<g><path style="opacity:1" fill="#fdfdfe" d="M 224.5,66.5 C 223.957,66.56 223.624,66.8933 223.5,67.5C 235.148,68.4989 246.814,68.8322 258.5,68.5C 264.869,69.0928 270.869,70.9262 276.5,74C 279.531,76.559 281.698,79.7257 283,83.5C 283.706,91.2083 283.372,98.875 282,106.5C 278.186,122.718 275.019,139.052 272.5,155.5C 263.584,156.471 254.584,156.804 245.5,156.5C 248.617,138.855 251.784,121.188 255,103.5C 257.977,94.8326 255.143,89.6659 246.5,88C 242.167,87.8333 237.833,87.6667 233.5,87.5C 228.746,87.5339 224.246,88.2006 220,89.5C 215.153,111.735 210.82,134.069 207,156.5C 198.251,157.484 189.418,157.817 180.5,157.5C 187.736,116.751 195.403,76.0845 203.5,35.5C 212.167,35.5 220.833,35.5 229.5,35.5C 228.479,45.9395 226.812,56.2729 224.5,66.5 Z"/></g>
<g><path style="opacity:1" fill="#d0d8ed" d="M 224.5,66.5 C 235.833,67.1667 247.167,67.8333 258.5,68.5C 246.814,68.8322 235.148,68.4989 223.5,67.5C 223.624,66.8933 223.957,66.56 224.5,66.5 Z"/></g>
<g><path style="opacity:1" fill="#d3dbee" d="M 358.5,68.5 C 338.757,68.1795 319.091,68.5128 299.5,69.5C 308.977,68.1681 318.81,67.5014 329,67.5C 339.006,67.5002 348.839,67.8335 358.5,68.5 Z"/></g>
<g><path style="opacity:1" fill="#fcfcfd" d="M 93.5,67.5 C 115.206,67.0684 136.873,67.5684 158.5,69C 180.363,74.8918 189.197,89.0585 185,111.5C 180.488,135.012 166.655,149.846 143.5,156C 129.871,157.337 116.204,157.837 102.5,157.5C 101.048,168.212 99.3812,178.879 97.5,189.5C 88.5,189.5 79.5,189.5 70.5,189.5C 77.7359,148.751 85.4026,108.084 93.5,67.5 Z"/></g>
<g><path style="opacity:1" fill="#fdfdfe" d="M 358.5,68.5 C 382.51,71.0138 393.676,84.3471 392,108.5C 387.387,137.39 370.554,153.557 341.5,157C 330.833,157.333 320.167,157.667 309.5,158C 306.804,168.339 304.804,178.839 303.5,189.5C 294.5,189.5 285.5,189.5 276.5,189.5C 283.954,149.44 291.621,109.44 299.5,69.5C 319.091,68.5128 338.757,68.1795 358.5,68.5 Z"/></g>
<g><path style="opacity:1" fill="#607bbe" d="M 116.5,87.5 C 125.839,87.3335 135.173,87.5002 144.5,88C 156.853,91.1953 161.02,99.0286 157,111.5C 155.223,126.275 147.056,134.775 132.5,137C 124.173,137.5 115.84,137.666 107.5,137.5C 110.498,120.841 113.498,104.175 116.5,87.5 Z"/></g>
<g><path style="opacity:1" fill="#617bbe" d="M 322.5,87.5 C 331.839,87.3335 341.173,87.5002 350.5,88C 362.722,90.5818 367.222,98.0818 364,110.5C 362.108,124.719 354.275,133.552 340.5,137C 331.506,137.5 322.506,137.666 313.5,137.5C 317.014,120.932 320.014,104.265 322.5,87.5 Z"/></g>
<g><path style="opacity:1" fill="#d4dbee" d="M 272.5,155.5 C 268.386,156.826 263.886,157.493 259,157.5C 254.32,157.499 249.82,157.166 245.5,156.5C 254.584,156.804 263.584,156.471 272.5,155.5 Z"/></g>
</svg>
