<?xml version="1.0" encoding="UTF-8"?>
<!DOCTYPE svg PUBLIC "-//W3C//DTD SVG 1.1//EN" "http://www.w3.org/Graphics/SVG/1.1/DTD/svg11.dtd">
<svg xmlns="http://www.w3.org/2000/svg" version="1.1" width="935px" height="935px" style="shape-rendering:geometricPrecision; text-rendering:geometricPrecision; image-rendering:optimizeQuality; fill-rule:evenodd; clip-rule:evenodd" xmlns:xlink="http://www.w3.org/1999/xlink">
<g><path style="opacity:1" fill="#fdfdfd" d="M 733.5,63.5 C 733.821,65.0481 734.821,65.7148 736.5,65.5C 739.807,67.1534 743.14,68.8201 746.5,70.5C 746.821,72.0481 747.821,72.7148 749.5,72.5C 769.401,82.9006 784.901,97.9006 796,117.5C 798.103,122.302 799.269,127.302 799.5,132.5C 800.587,146.658 796.754,159.324 788,170.5C 774.452,186.381 758.285,198.881 739.5,208C 691.13,230.477 640.463,245.144 587.5,252C 543.068,258.31 498.401,261.477 453.5,261.5C 388.64,261.127 324.64,253.627 261.5,239C 229.353,231.261 198.686,219.595 169.5,204C 153.238,194.743 139.071,182.91 127,168.5C 122.214,160.943 118.714,152.943 116.5,144.5C 115.28,132.923 117.613,122.257 123.5,112.5C 124.906,112.027 125.573,111.027 125.5,109.5C 128.074,104.591 131.408,100.258 135.5,96.5C 138.427,95.2427 140.761,93.2427 142.5,90.5C 151.483,82.0332 161.483,74.8666 172.5,69C 219.106,46.3549 268.106,31.3549 319.5,24C 423.187,8.33882 526.521,10.3388 629.5,30C 665.546,37.0713 700.212,48.238 733.5,63.5 Z"/></g>
<g><path style="opacity:1" fill="#b7d432" d="M 671.5,180.5 C 643.798,169.707 615.131,162.207 585.5,158C 492.593,144.086 399.926,145.419 307.5,162C 296.549,164.821 285.549,167.488 274.5,170C 264.149,172.837 254.149,176.337 244.5,180.5C 225.781,174.559 209.281,164.893 195,151.5C 184.12,138.071 183.787,124.404 194,110.5C 204.854,99.6504 217.354,91.1504 231.5,85C 259.542,73.4316 288.542,65.0982 318.5,60C 415.286,44.1184 511.953,44.785 608.5,62C 642.799,67.9872 675.132,79.3205 705.5,96C 714.712,102.212 722.212,110.045 728,119.5C 731.992,129.874 730.659,139.541 724,148.5C 709.586,164.128 692.086,174.795 671.5,180.5 Z"/></g>
<g><path style="opacity:1" fill="#777777" d="M 733.5,63.5 C 734.71,63.9321 735.71,64.5987 736.5,65.5C 734.821,65.7148 733.821,65.0481 733.5,63.5 Z"/></g>
<g><path style="opacity:1" fill="#7b7b7b" d="M 746.5,70.5 C 747.71,70.9321 748.71,71.5987 749.5,72.5C 747.821,72.7148 746.821,72.0481 746.5,70.5 Z"/></g>
<g><path style="opacity:1" fill="#9f9f9f" d="M 142.5,90.5 C 140.761,93.2427 138.427,95.2427 135.5,96.5C 137.239,93.7573 139.573,91.7573 142.5,90.5 Z"/></g>
<g><path style="opacity:1" fill="#797979" d="M 125.5,109.5 C 125.573,111.027 124.906,112.027 123.5,112.5C 123.427,110.973 124.094,109.973 125.5,109.5 Z"/></g>
<g><path style="opacity:1" fill="#0072c5" d="M 116.5,144.5 C 118.714,152.943 122.214,160.943 127,168.5C 139.071,182.91 153.238,194.743 169.5,204C 198.686,219.595 229.353,231.261 261.5,239C 324.64,253.627 388.64,261.127 453.5,261.5C 453.5,320.5 453.5,379.5 453.5,438.5C 414.181,447.314 388.348,470.981 376,509.5C 364.38,550.109 370.38,587.775 394,622.5C 409.79,640.981 429.624,652.647 453.5,657.5C 453.5,744.833 453.5,832.167 453.5,919.5C 377.956,920.398 303.956,910.232 231.5,889C 199.377,879.605 170.044,864.939 143.5,845C 133.609,836.367 125.775,826.2 120,814.5C 118.798,811.226 117.798,807.893 117,804.5C 116.5,584.5 116.333,364.5 116.5,144.5 Z"/></g>
<g><path style="opacity:1" fill="#7fba03" d="M 671.5,180.5 C 642.792,191.261 613.126,198.761 582.5,203C 498.842,215.62 415.175,215.62 331.5,203C 301.523,198.757 272.523,191.257 244.5,180.5C 254.149,176.337 264.149,172.837 274.5,170C 285.549,167.488 296.549,164.821 307.5,162C 399.926,145.419 492.593,144.086 585.5,158C 615.131,162.207 643.798,169.707 671.5,180.5 Z"/></g>
<g><path style="opacity:1" fill="#2686ce" d="M 799.5,132.5 C 800.666,355.333 800.833,578.333 800,801.5C 797.427,814.98 791.427,826.647 782,836.5C 765.139,852.359 745.972,864.859 724.5,874C 677.887,893.07 629.554,905.737 579.5,912C 537.501,917.721 495.501,920.221 453.5,919.5C 453.5,832.167 453.5,744.833 453.5,657.5C 459.154,658.055 464.82,658.555 470.5,659C 485.003,675.669 499.67,692.169 514.5,708.5C 535.663,709.663 556.996,709.829 578.5,709C 577.956,708.283 577.289,707.783 576.5,707.5C 556.219,689.222 536.219,670.555 516.5,651.5C 550.564,636.773 571.397,611.106 579,574.5C 586.832,536.988 579.832,502.655 558,471.5C 529.533,441.02 494.699,430.02 453.5,438.5C 453.5,379.5 453.5,320.5 453.5,261.5C 498.401,261.477 543.068,258.31 587.5,252C 640.463,245.144 691.13,230.477 739.5,208C 758.285,198.881 774.452,186.381 788,170.5C 796.754,159.324 800.587,146.658 799.5,132.5 Z"/></g>
<g><path style="opacity:1" fill="#fdfefe" d="M 339.5,444.5 C 339.829,459.01 339.496,473.343 338.5,487.5C 320.419,476.261 300.753,472.094 279.5,475C 262.164,479.838 256.664,490.671 263,507.5C 265.128,510.63 267.628,513.463 270.5,516C 288.124,525.145 305.458,534.812 322.5,545C 348.704,563.958 356.204,588.792 345,619.5C 338.374,634.791 327.208,645.291 311.5,651C 282.38,660.243 253.046,660.91 223.5,653C 219.183,651.063 214.85,649.23 210.5,647.5C 210.17,631.325 210.504,615.325 211.5,599.5C 232.574,618.019 256.907,624.186 284.5,618C 298.699,611.097 302.199,600.597 295,586.5C 292.5,584 290,581.5 287.5,579C 270.833,569.667 254.167,560.333 237.5,551C 212.546,532.138 204.379,507.638 213,477.5C 223.266,456.097 240.1,442.931 263.5,438C 284.965,435.477 306.299,436.144 327.5,440C 331.704,441.231 335.704,442.731 339.5,444.5 Z"/></g>
<g><path style="opacity:1" fill="#fefefe" d="M 576.5,707.5 C 556.007,708.497 535.34,708.831 514.5,708.5C 499.67,692.169 485.003,675.669 470.5,659C 464.82,658.555 459.154,658.055 453.5,657.5C 429.624,652.647 409.79,640.981 394,622.5C 370.38,587.775 364.38,550.109 376,509.5C 388.348,470.981 414.181,447.314 453.5,438.5C 494.699,430.02 529.533,441.02 558,471.5C 579.832,502.655 586.832,536.988 579,574.5C 571.397,611.106 550.564,636.773 516.5,651.5C 536.219,670.555 556.219,689.222 576.5,707.5 Z"/></g>
<g><path style="opacity:1" fill="#fefefe" d="M 665.5,439.5 C 665.5,498.5 665.5,557.5 665.5,616.5C 692.167,616.5 718.833,616.5 745.5,616.5C 745.5,629.5 745.5,642.5 745.5,655.5C 702.833,655.5 660.167,655.5 617.5,655.5C 617.5,583.5 617.5,511.5 617.5,439.5C 633.5,439.5 649.5,439.5 665.5,439.5 Z"/></g>
<g><path style="opacity:1" fill="#c0dcf1" d="M 339.5,444.5 C 340.826,459.005 340.826,473.672 339.5,488.5C 338.893,488.376 338.56,488.043 338.5,487.5C 339.496,473.343 339.829,459.01 339.5,444.5 Z"/></g>
<g><path style="opacity:1" fill="#2787cf" d="M 453.5,611.5 C 453.5,568.833 453.5,526.167 453.5,483.5C 472.561,474.495 490.894,475.995 508.5,488C 524.82,505.117 532.154,525.617 530.5,549.5C 530.959,564.381 527.792,578.381 521,591.5C 507.677,611.846 488.843,620.013 464.5,616C 460.381,615.356 456.715,613.856 453.5,611.5 Z"/></g>
<g><path style="opacity:1" fill="#0673c6" d="M 453.5,483.5 C 453.5,526.167 453.5,568.833 453.5,611.5C 443.037,606.626 435.204,598.959 430,588.5C 421.22,567.491 419.22,545.824 424,523.5C 428.002,505.692 437.835,492.358 453.5,483.5 Z"/></g>
<g><path style="opacity:1" fill="#3e95d4" d="M 211.5,599.5 C 210.504,615.325 210.17,631.325 210.5,647.5C 209.173,631.328 209.173,614.995 210.5,598.5C 211.107,598.624 211.44,598.957 211.5,599.5 Z"/></g>
<g><path style="opacity:1" fill="#b3d4ee" d="M 665.5,439.5 C 666.499,497.998 666.832,556.664 666.5,615.5C 693.005,615.169 719.339,615.502 745.5,616.5C 718.833,616.5 692.167,616.5 665.5,616.5C 665.5,557.5 665.5,498.5 665.5,439.5 Z"/></g>
<g><path style="opacity:1" fill="#92c2e6" d="M 576.5,707.5 C 577.289,707.783 577.956,708.283 578.5,709C 556.996,709.829 535.663,709.663 514.5,708.5C 535.34,708.831 556.007,708.497 576.5,707.5 Z"/></g>
</svg>
